<mxfile host="app.diagrams.net" modified="2024-04-24T19:29:58.407Z" agent="Mozilla/5.0 (Windows NT 10.0; Win64; x64) AppleWebKit/537.36 (KHTML, like Gecko) Chrome/124.0.0.0 Safari/537.36" etag="-xhwKgc-V4KglX6k2SYy" version="24.3.0" type="device">
  <diagram name="Page-1" id="74e2e168-ea6b-b213-b513-2b3c1d86103e">
    <mxGraphModel dx="1195" dy="1472" grid="1" gridSize="10" guides="1" tooltips="1" connect="1" arrows="1" fold="1" page="1" pageScale="1" pageWidth="1100" pageHeight="850" background="none" math="0" shadow="0">
      <root>
        <mxCell id="0" />
        <mxCell id="1" parent="0" />
        <mxCell id="TYNoFNzLAgtqT-id8gh6-1" value="&lt;div style=&quot;text-align: center;&quot;&gt;&lt;u style=&quot;background-color: initial;&quot;&gt;&lt;b&gt;Menu&lt;/b&gt;&lt;/u&gt;&lt;/div&gt;&lt;div&gt;&lt;ul&gt;&lt;li style=&quot;&quot;&gt;Cadastrar Veículo&lt;/li&gt;&lt;li style=&quot;&quot;&gt;&lt;span style=&quot;background-color: initial;&quot;&gt;Fazer Diagnóstico&lt;/span&gt;&lt;/li&gt;&lt;li style=&quot;&quot;&gt;&lt;span style=&quot;background-color: initial;&quot;&gt;Histórico de Diagnósticos&lt;/span&gt;&lt;/li&gt;&lt;li style=&quot;&quot;&gt;&lt;span style=&quot;background-color: initial;&quot;&gt;Orçamentos&lt;/span&gt;&lt;/li&gt;&lt;li style=&quot;&quot;&gt;&lt;span style=&quot;background-color: initial;&quot;&gt;CAPS (Centros Automotivos)&lt;/span&gt;&lt;/li&gt;&lt;li style=&quot;&quot;&gt;&lt;span style=&quot;background-color: initial;&quot;&gt;Agendar Serviço&lt;/span&gt;&lt;/li&gt;&lt;li style=&quot;&quot;&gt;&lt;span style=&quot;background-color: initial;&quot;&gt;Histórico de Reparos&amp;nbsp;&lt;/span&gt;&lt;/li&gt;&lt;/ul&gt;&lt;/div&gt;" style="rounded=1;whiteSpace=wrap;html=1;align=left;" parent="1" vertex="1">
          <mxGeometry x="40" y="50" width="270" height="170" as="geometry" />
        </mxCell>
        <mxCell id="TYNoFNzLAgtqT-id8gh6-2" value="&lt;div&gt;Olá, tudo bem? Seja bem vindo ao AutoCheckup da Porto!&lt;/div&gt;&lt;div&gt;Escolha uma das alternativas para prosseguir:&lt;/div&gt;&lt;div&gt;&lt;/div&gt;" style="rounded=1;whiteSpace=wrap;html=1;" parent="1" vertex="1">
          <mxGeometry x="55.5" y="-50" width="239" height="80" as="geometry" />
        </mxCell>
        <mxCell id="Ly5N1F-LOvIsdjdt4z-P-1" value="Cadastrar Veículo" style="rounded=1;whiteSpace=wrap;html=1;" vertex="1" parent="1">
          <mxGeometry x="360" y="-50" width="120" height="60" as="geometry" />
        </mxCell>
        <mxCell id="Ly5N1F-LOvIsdjdt4z-P-3" value="Perguntas sobre o carro" style="rounded=1;whiteSpace=wrap;html=1;" vertex="1" parent="1">
          <mxGeometry x="360" y="40" width="120" height="60" as="geometry" />
        </mxCell>
      </root>
    </mxGraphModel>
  </diagram>
</mxfile>
